<svg xmlns:dc="http://purl.org/dc/elements/1.1/" xmlns:cc="http://creativecommons.org/ns#" xmlns:rdf="http://www.w3.org/1999/02/22-rdf-syntax-ns#" xmlns:svg="http://www.w3.org/2000/svg" xmlns="http://www.w3.org/2000/svg" viewBox="0 0 280 280" fill="none"><metadata><rdf:RDF><cc:Work><dc:format>image/svg+xml</dc:format><dc:type rdf:resource="http://purl.org/dc/dcmitype/StillImage"/><dc:title>Avataaars</dc:title><dc:creator><cc:Agent><dc:title>Pablo Stanley</dc:title></cc:Agent></dc:creator><dc:source>https://avataaars.com/</dc:source><cc:license rdf:resource="https://avataaars.com/"/><dc:contributor><cc:Agent><dc:title>Florian Körner</dc:title></cc:Agent></dc:contributor></cc:Work></rdf:RDF></metadata><mask id="avatarsRadiusMask"><rect width="280" height="280" rx="0" ry="0" x="0" y="0" fill="#fff"/></mask><g mask="url(#avatarsRadiusMask)"><g transform="translate(40, 36)"><path d="M100 0C69.072 0 44 25.072 44 56v6.166c-5.675.952-10 5.888-10 11.834v14c0 6.052 4.48 11.058 10.305 11.881 2.067 19.806 14.458 36.541 31.695 44.73V163h-4c-39.764 0-72 32.236-72 72v9h200v-9c0-39.764-32.236-72-72-72h-4v-18.389c17.237-8.189 29.628-24.924 31.695-44.73C161.52 99.058 166 94.052 166 88V74c0-5.946-4.325-10.882-10-11.834V56c0-30.928-25.072-56-56-56z" fill="#EDB98A"/><path d="M76 144.611v8A55.79 55.79 0 00100 158a55.789 55.789 0 0024-5.389v-8A55.789 55.789 0 01100 150a55.79 55.79 0 01-24-5.389z" fill="#000" fill-opacity=".1"/></g><g transform="translate(8, 170)"><path d="M132.5 54c18.502 0 33.5-9.626 33.5-21.5a14.08 14.08 0 00-.376-3.232C202.76 32.138 232 63.18 232 101.052V110H32v-8.948c0-38.217 29.775-69.48 67.393-71.855A14.108 14.108 0 0099 32.5C99 44.374 113.998 54 132.5 54z" fill="#25557C"/><g transform="translate(77, 58)"><path fill-rule="evenodd" clip-rule="evenodd" d="M76.739 17.439c1.188 2.084 1.852 4.35 2.088 6.73.04.383.061.762.065 1.136v.211c-.093 10.22-13.611 16.856-22.478 17.351-.632.036-1.264.053-1.892.053h-.014c-10.082-.002-19.562-4.553-22.533-14.847a13.794 13.794 0 01-.522-3.818c0-3.357 1.118-6.82 3.15-9.401.237-.3.533-.589.83-.878.366-.358.735-.718.995-1.104.476-.705.645-.687.669-.737.022-.048-.083-.156-.182-.988-.058-.49-.218-.929-.38-1.37-.212-.582-.426-1.168-.41-1.881.053-2.39 1.768-5.078 4.053-5.942 1.29-.486 2.675-.344 3.967.078.586.191 1.177.668 1.748 1.13.573.46 1.125.906 1.633 1.034.973.244 2.832-.134 4.478-.468.954-.194 1.837-.374 2.435-.41 1.394-.082 2.797-.122 4.192-.033.279.018.725.12 1.213.23.834.19 1.787.407 2.228.279.448-.13.913-.512 1.395-.908.485-.397.986-.809 1.505-.993a8.099 8.099 0 012.72-.463c.162 0 .325.005.487.014 2.329.133 4.995 1.185 5.984 3.427.798 1.809.247 3.294-.338 4.872-.194.524-.392 1.057-.546 1.617-.195.709-.31.847-.29.96.022.114.181.202.537.825.075.13.346.437.61.737.153.173.303.343.413.476.797.97 1.567 1.988 2.19 3.08zM58.299 36.97c3.069 2.96 6.669-1.57 7.148-4.385.843-10.061-15.069-8.744-19.224-3.003-2.102 2.904-.617 6.816 2.575 8.217 1.395.612 2.582.905 3.585-.05.797-.761 1.024-3.52.488-4.269-.28-.39-.661-.5-1.044-.61-.544-.155-1.09-.312-1.344-1.281-.57-2.17 1.807-2.507 3.296-2.625.279-.022.607-.06.967-.102 1.691-.199 4.059-.477 5.035.513 1.3 1.32.257 2.343-.832 3.41-1.209 1.186-2.473 2.425-.65 4.184zm-9.582-20.46c-.584-.99-1.748-1.23-2.732-.787-1.812.824-.95 3.513.757 3.743 1.617.217 2.777-1.6 1.975-2.956zm15.23.868c-.856 3.006-5.636-.378-2.936-2.29 1.552-1.099 3.447.491 2.936 2.29z" fill="#fff"/></g></g><g transform="translate(86, 134)"><path d="M40 16c0 5.372 6.158 9 14 9s14-3.628 14-9c0-1.105-.95-2-2-2-1.293 0-1.87.905-2 2-1.242 2.938-4.317 4.716-10 5-5.683-.284-8.758-2.062-10-5-.13-1.095-.707-2-2-2-1.05 0-2 .895-2 2z" fill="#000" fill-opacity=".6"/></g><g transform="translate(112, 122)"><path fill-rule="evenodd" clip-rule="evenodd" d="M16 8c0 4.418 5.373 8 12 8s12-3.582 12-8" fill="#000" fill-opacity=".16"/></g><g transform="translate(84, 90)"><path d="M44 22c0 7.732-6.268 14-14 14s-14-6.268-14-14S22.268 8 30 8s14 6.268 14 14zm52 0c0 7.732-6.268 14-14 14s-14-6.268-14-14S74.268 8 82 8s14 6.268 14 14z" fill="#fff"/><path d="M36 14a6 6 0 11-12 0 6 6 0 0112 0zm52 0a6 6 0 11-12 0 6 6 0 0112 0z" fill="#000" fill-opacity=".7"/></g><g transform="translate(84, 82)"><path fill-rule="evenodd" clip-rule="evenodd" d="M22.766 1.578l.911-.402C28.92-.905 36.865-.033 41.723 2.299c.567.272.18 1.153-.402 1.108-14.919-1.151-24.963 8.146-28.375 14.44-.101.187-.407.208-.482.034-2.308-5.319 4.45-13.985 10.302-16.303zm66.468 0l-.911-.402C83.08-.905 75.135-.033 70.277 2.299c-.567.272-.18 1.153.402 1.108 14.919-1.151 24.963 8.146 28.375 14.44.101.187.407.208.483.034 2.307-5.319-4.45-13.985-10.303-16.303z" fill="#000" fill-opacity=".6"/></g><g transform="translate(7, 0)"><path fill-rule="evenodd" clip-rule="evenodd" d="M193.765 70.766c-.264-3.317-.732-6.614-1.518-9.855-.625-2.576-1.478-5.034-2.487-7.491-.609-1.485-2.032-3.524-2.2-5.126-.165-1.577 1.067-3.325 1.329-5.162a15.975 15.975 0 00-.155-5.438c-.833-4.023-3.594-7.764-7.857-8.813-.952-.234-2.964.055-3.636-.5-.771-.635-1.308-2.8-2.006-3.669-1.991-2.476-5.095-4.07-8.369-3.514-2.411.409-1.027.907-2.834-.512-1.005-.788-1.756-1.993-2.732-2.847-1.467-1.283-3.15-2.38-4.892-3.282-4.557-2.358-9.754-4.072-14.844-4.908-9.285-1.524-19.195-.195-28.195 2.22-4.479 1.201-8.987 2.726-13.147 4.743-1.783.864-2.813 1.582-4.672 1.808-2.93.357-5.41.339-8.184 1.581-8.536 3.822-12.381 12.689-9.06 21.174a14.637 14.637 0 002.82 4.584c1.521 1.68 2.072 1.35.762 3.282a52.785 52.785 0 00-4.955 9.172c-3.529 8.402-4.12 17.864-3.89 26.824.081 3.137.216 6.313.71 9.42.214 1.344.274 3.872 1.282 4.87.512.506 1.241.788 1.969.587 1.71-.474 1.121-1.735 1.161-2.906.2-5.884-.07-11.089 1.33-16.901 1.033-4.295 2.755-8.195 4.988-12.036 2.838-4.884 5.903-9.173 9.806-13.355.918-.984 1.119-1.4 2.35-1.472.931-.054 2.295.584 3.2.805 1.999.487 4 .968 6.034 1.296 3.74.603 7.444.644 11.217.525 7.426-.232 14.885-.753 22.085-2.623 4.782-1.242 9.022-3.47 13.602-5.105.082-.029 1.23-.847 1.431-.814.281.047 1.977 1.826 2.263 2.05 2.226 1.746 4.667 2.479 7.07 3.83 2.964 1.667.094-.718 1.728 1.359.477.605.721 1.726 1.103 2.411a18.086 18.086 0 004.931 5.624c1.955 1.47 4.893 2.18 5.89 4.095.769 1.477 1.028 3.484 1.648 5.06 1.628 4.136 3.777 7.992 5.926 11.887 1.732 3.14 3.625 5.881 3.818 9.468.067 1.248-1.121 8.737 1.773 6.46.429-.338 1.353-4.156 1.543-4.804.772-2.633 1.046-5.381 1.395-8.086.694-5.38.923-10.498.469-15.916z" fill="#2C1B18"/></g></g></svg>