<svg width="596" height="596" viewBox="0 0 596 596" fill="none" xmlns="http://www.w3.org/2000/svg">
<path d="M217.737 11.6839C219.466 -0.00979352 234.639 -3.51456 241.321 6.23653L297.303 87.9323C302.105 94.9405 312.229 95.5344 317.817 89.1359L382.968 14.5469C390.744 5.64404 405.404 10.8992 405.753 22.7148L408.679 121.707C408.931 130.199 417.126 136.172 425.287 133.811L520.421 106.286C531.776 103 541.267 115.347 535.173 125.476L484.115 210.336C479.736 217.615 483.401 227.071 491.543 229.497L586.456 257.774C597.785 261.149 599.094 276.667 588.491 281.893L499.66 325.678C492.04 329.434 490.011 339.371 495.549 345.813L560.107 420.916C567.813 429.88 560.525 443.642 548.78 442.307L450.378 431.115C441.937 430.155 434.859 437.417 436.034 445.831L449.741 543.914C451.377 555.621 437.805 563.258 428.647 555.785L351.916 493.17C345.334 487.799 335.453 490.081 331.894 497.795L290.396 587.718C285.443 598.451 269.897 597.539 266.233 586.3L235.536 492.142C232.902 484.064 223.356 480.642 216.191 485.207L132.665 538.42C122.696 544.771 110.11 535.599 113.104 524.163L138.186 428.356C140.337 420.137 134.157 412.098 125.661 412.064L26.6259 411.672C14.8052 411.625 9.1767 397.105 17.8776 389.103L90.7749 322.065C97.0283 316.314 96.1754 306.209 89.0467 301.588L5.94496 247.716C-3.97393 241.286 -0.858602 226.027 10.787 224L108.356 207.015C116.725 205.558 121.471 196.596 117.973 188.854L77.1885 98.6058C72.3206 87.8339 83.1907 76.682 94.0836 81.2727L185.346 119.734C193.175 123.033 202.013 118.059 203.255 109.655L217.737 11.6839Z" fill="#0070F3"/>
</svg>
