<svg width="562" height="184" viewBox="0 0 562 184" fill="none" xmlns="http://www.w3.org/2000/svg">
<path d="M264.137 -375.003C274.933 -379.482 287.067 -379.482 297.863 -375.003L464.985 -305.657C475.763 -301.184 484.323 -292.613 488.782 -281.829L558.048 -114.313C562.5 -103.546 562.5 -91.4537 558.048 -80.6872L488.782 86.8295C484.323 97.6135 475.763 106.184 464.985 110.657L297.863 180.003C287.067 184.482 274.933 184.482 264.137 180.003L97.0154 110.657C86.2369 106.184 77.6766 97.6135 73.2176 86.8295L3.95185 -80.6872C-0.499941 -91.4537 -0.49994 -103.546 3.95185 -114.313L73.2176 -281.829C77.6766 -292.613 86.2369 -301.184 97.0154 -305.657L264.137 -375.003Z" fill="#E64DFF"/>
</svg>
