<?xml version="1.0" encoding="UTF-8" standalone="no"?>
<!-- Created with Inkscape (http://www.inkscape.org/) -->

<svg
   xmlns:dc="http://purl.org/dc/elements/1.1/"
   xmlns:cc="http://creativecommons.org/ns#"
   xmlns:rdf="http://www.w3.org/1999/02/22-rdf-syntax-ns#"
   xmlns:svg="http://www.w3.org/2000/svg"
   xmlns="http://www.w3.org/2000/svg"
   xmlns:sodipodi="http://sodipodi.sourceforge.net/DTD/sodipodi-0.dtd"
   xmlns:inkscape="http://www.inkscape.org/namespaces/inkscape"
   version="1.1"
   id="svg2027"
   xml:space="preserve"
   width="800"
   height="800"
   viewBox="0 0 800 800"
   sodipodi:docname="logo-concept-shape-art.svg"
   inkscape:version="0.92.4 (5da689c313, 2019-01-14)"><metadata
     id="metadata2033"><rdf:RDF><cc:Work
         rdf:about=""><dc:format>image/svg+xml</dc:format><dc:type
           rdf:resource="http://purl.org/dc/dcmitype/StillImage" /><dc:title></dc:title></cc:Work></rdf:RDF></metadata><defs
     id="defs2031"><clipPath
       clipPathUnits="userSpaceOnUse"
       id="clipPath2043"><path
         d="M 0,600 H 600 V 0 H 0 Z"
         id="path2041"
         inkscape:connector-curvature="0" /></clipPath><linearGradient
       x1="0"
       y1="0"
       x2="1"
       y2="0"
       gradientUnits="userSpaceOnUse"
       gradientTransform="matrix(350.68848,0,0,-350.68848,128.8252,315.01611)"
       spreadMethod="pad"
       id="linearGradient2067"><stop
         style="stop-opacity:1;stop-color:#1aaeec"
         offset="0"
         id="stop2057" /><stop
         style="stop-opacity:1;stop-color:#4253a7"
         offset="0.297753"
         id="stop2059" /><stop
         style="stop-opacity:1;stop-color:#e70c8d"
         offset="0.646067"
         id="stop2061" /><stop
         style="stop-opacity:1;stop-color:#e33c47"
         offset="0.955056"
         id="stop2063" /><stop
         style="stop-opacity:1;stop-color:#e33c47"
         offset="1"
         id="stop2065" /></linearGradient></defs><sodipodi:namedview
     pagecolor="#ffffff"
     bordercolor="#666666"
     borderopacity="1"
     objecttolerance="10"
     gridtolerance="10"
     guidetolerance="10"
     inkscape:pageopacity="0"
     inkscape:pageshadow="2"
     inkscape:window-width="1920"
     inkscape:window-height="1018"
     id="namedview2029"
     showgrid="false"
     inkscape:zoom="0.82386513"
     inkscape:cx="506.77966"
     inkscape:cy="376.27119"
     inkscape:window-x="-8"
     inkscape:window-y="-8"
     inkscape:window-maximized="1"
     inkscape:current-layer="g2035" /><g
     id="g2035"
     inkscape:groupmode="layer"
     inkscape:label="circles-element-11-publicdomainvectors.org"
     transform="matrix(1.3333333,0,0,-1.3333333,0,800)"><g
       id="g2037"><g
         id="g2039"
         clip-path="url(#clipPath2043)"><g
           id="g2045"><g
             id="g2047"><g
               id="g2053"><g
                 id="g2055"><path
                   d="m 277.568,228.921 c -1.464,-0.436 -2.914,-0.897 -4.356,-1.371 -11.04,20.902 -27.084,39.56 -47.799,54.021 -1.253,0.875 -2.517,1.721 -3.787,2.551 9.459,21.664 14.043,45.842 12.435,71.054 -0.098,1.525 -0.226,3.041 -0.368,4.553 22.836,6.11 44.597,17.601 63.305,34.578 1.131,1.027 2.236,2.072 3.33,3.125 19.016,-14.043 41.567,-23.892 66.504,-27.934 1.509,-0.244 3.016,-0.457 4.521,-0.655 0.876,-23.623 7.235,-47.395 19.624,-69.411 0.751,-1.332 1.55,-2.618 2.334,-3.918 -17.934,-15.418 -32.566,-35.22 -42.06,-58.646 -0.573,-1.418 -1.116,-2.838 -1.646,-4.262 -23.225,4.403 -47.816,3.493 -72.037,-3.685 m 118.359,-13.132 c -6.036,3.368 -12.303,6.321 -18.745,8.854 0.193,0.495 0.374,0.993 0.575,1.487 17.798,43.913 57.76,72.2 101.757,77.166 -24.133,29.359 -34.177,68.962 -25.3,107.364 l -30.728,-9.928 c -3.268,-27.465 1.058,-54.886 11.825,-79.515 -6.397,-2.618 -12.61,-5.676 -18.606,-9.133 -0.267,0.461 -0.542,0.912 -0.803,1.378 -23.238,41.294 -20.438,90.171 3.111,127.669 -37.999,-0.566 -75.228,16.273 -99.715,47.159 l -11.397,-30.216 c 19.437,-19.678 43.57,-33.391 69.539,-40.331 -1.941,-6.634 -3.423,-13.398 -4.459,-20.242 -0.526,0.079 -1.05,0.144 -1.577,0.23 -46.775,7.58 -83.244,40.243 -97.875,82.033 -23.253,-30.061 -59.628,-48.668 -99.043,-48.556 l 16.518,-27.75 c 27.503,2.929 53.274,13.246 74.889,29.223 3.976,-5.653 8.34,-11.031 13.045,-16.108 -0.39,-0.361 -0.768,-0.731 -1.165,-1.089 -35.088,-31.845 -83.363,-39.991 -125.16,-25.376 9.006,-36.922 0.874,-76.962 -23.788,-107.709 l 31.994,-4.388 c 14.86,23.328 22.859,49.911 23.846,76.772 6.899,-0.416 13.825,-0.358 20.728,0.156 0.04,-0.53 0.093,-1.056 0.126,-1.589 3.019,-47.289 -20.711,-90.111 -58.197,-113.677 34.48,-15.979 60.716,-47.301 69.377,-85.753 l 23.379,22.277 c -8.974,26.164 -24.768,48.991 -45.154,66.511 4.627,5.135 8.899,10.585 12.801,16.301 0.44,-0.299 0.883,-0.585 1.321,-0.892 38.853,-27.122 57.537,-72.374 52.59,-116.375 33.992,16.995 74.838,17.977 110.301,0.775 l -2.843,32.169 c -26.048,9.294 -53.744,11.178 -80.152,6.165 -1.129,6.817 -2.727,13.556 -4.763,20.17 0.508,0.159 1.009,0.328 1.522,0.478 45.429,13.467 92.46,-0.14 123.778,-31.443 7.903,37.173 32.602,69.718 68.164,86.72 l -26.924,17.836 c -23.508,-14.572 -42.25,-35.049 -54.792,-58.823"
                   style="fill:url(#linearGradient2067);stroke:none"
                   id="path2069"
                   inkscape:connector-curvature="0" /></g></g></g></g></g></g></g></svg>